<?xml version="1.0" encoding="UTF-8"?>
<svg id="Layer_2" data-name="Layer 2" xmlns="http://www.w3.org/2000/svg" viewBox="0 0 173.71 217.82">
  <g id="Layer_1-2" data-name="Layer 1">
    <g>
      <path d="M63.14,13c-28.2,7.1-52.6,13.6-54.2,14.4-3.4,1.8-7.9,6.9-8.6,9.9C.04,38.5-.06,72.8.04,113.5l.3,74,2.3,4.2c3.5,6.7,7.6,9.7,23.7,18,14.6,7.4,15.2,7.6,23.5,8,7.6.4,10.3,0,25.5-4l17-4.4.3-18.9c.2-10.4,0-20.3-.3-21.9-.5-2.3-2-3.9-6.6-6.8-3.2-2.1-7.2-5.7-8.8-8-10.5-15.5-8.3-38.2,5.3-55.5,5.5-6.9,8.2-8.8,10.2-7.1,1.1.9,1.4,4.8,1.4,19v17.8l8.4,2.7,8.4,2.7,7.9-6.4,7.8-6.5.5-19c.5-18.1.6-18.9,2.5-19.2,3-.4,9.6,4.8,13.3,10.4,6.2,9.2,8.3,21.5,5.8,33.4-2.1,10.1-6.3,18.1-13.6,26.3l-6,6.8v19.8c0,10.9.2,20,.5,20.3,1,1,26.3-5.9,29.9-8.1,1.9-1.2,5.3-4.3,7.5-6.7,7.4-8.4,7.1-5.3,6.9-85.8-.3-66.8-.4-72-2-73-1.4-.8-14.9,2.2-61,13.7-32.6,8.2-60.8,15.5-62.7,16.4-1.8.9-4.5,3.4-6,5.7l-2.6,4-.2,69c-.3,65.3-.4,69.1-2,68.8-4.3-.8-4.3-.3-4.3-72.4,0-60.7.2-69.3,1.6-71.9.8-1.7,1.4-3.2,1.2-3.2-21.6-10.5-24.3-12.2-24.6-15.3-.2-1.7.3-3.6,1.1-4.2,1.3-1.1,91.5-24.1,102.7-26.2,6.5-1.2,11.1.1,26.9,7.5,7.5,3.6,14,6.5,14.4,6.5s.7-2.2.7-4.8v-4.9l-12.9-6.1C131.64,2.3,124.24,0,117.44,0c-1.7,0-26.2,5.9-54.3,13Z"/>
      <path d="M105.34,18.6c-7.1,1.8-26.7,6.7-43.5,10.9-40.8,10.1-38.4,9.5-37.2,10.7.8.8,15.1-2.4,48.6-10.8,26.2-6.5,47.6-12.2,47.6-12.5,0-1.7-3.5-1.4-15.5,1.7Z"/>
      <path d="M81.84,31.2c-49.4,12.5-50.2,12.8-48.3,13.5,1.4.5,94.4-22.5,95.6-23.7.5-.4.5-1,0-1.2-.4-.3-21.7,4.8-47.3,11.4Z"/>
      <path d="M102.84,31.6c-62,15.7-63.6,16.1-61.7,16.9,1.2.5,19.6-3.6,49.8-11.1,42.1-10.4,51.9-13.4,46.7-14.1-.7-.1-16.4,3.7-34.8,8.3Z"/>
    </g>
  </g>
</svg>