<?xml version="1.0" encoding="UTF-8"?>
<svg id="Layer_2" data-name="Layer 2" xmlns="http://www.w3.org/2000/svg" viewBox="0 0 1095 217.82">
  <g id="Layer_1-2" data-name="Layer 1">
    <g>
      <path d="M834.3,13c-28.2,7.1-52.6,13.6-54.2,14.4-3.4,1.8-7.9,6.9-8.6,9.9-.3,1.2-.4,35.5-.3,76.2l.3,74,2.3,4.2c3.5,6.7,7.6,9.7,23.7,18,14.6,7.4,15.2,7.6,23.5,8,7.6.4,10.3,0,25.5-4l17-4.4.3-18.9c.2-10.4,0-20.3-.3-21.9-.5-2.3-2-3.9-6.6-6.8-3.2-2.1-7.2-5.7-8.8-8-10.5-15.5-8.3-38.2,5.3-55.5,5.5-6.9,8.2-8.8,10.2-7.1,1.1.9,1.4,4.8,1.4,19v17.8l8.4,2.7,8.4,2.7,7.9-6.4,7.8-6.5.5-19c.5-18.1.6-18.9,2.5-19.2,3-.4,9.6,4.8,13.3,10.4,6.2,9.2,8.3,21.5,5.8,33.4-2.1,10.1-6.3,18.1-13.6,26.3l-6,6.8v19.8c0,10.9.2,20,.5,20.3,1,1,26.3-5.9,29.9-8.1,1.9-1.2,5.3-4.3,7.5-6.7,7.4-8.4,7.1-5.3,6.9-85.8-.3-66.8-.4-72-2-73-1.4-.8-14.9,2.2-61,13.7-32.6,8.2-60.8,15.5-62.7,16.4-1.8.9-4.5,3.4-6,5.7l-2.6,4-.2,69c-.3,65.3-.4,69.1-2,68.8-4.3-.8-4.3-.3-4.3-72.4,0-60.7.2-69.3,1.6-71.9.8-1.7,1.4-3.2,1.2-3.2-21.6-10.5-24.3-12.2-24.6-15.3-.2-1.7.3-3.6,1.1-4.2,1.3-1.1,91.5-24.1,102.7-26.2,6.5-1.2,11.1.1,26.9,7.5,7.5,3.6,14,6.5,14.4,6.5s.7-2.2.7-4.8v-4.9l-12.9-6.1c-12.3-5.9-19.7-8.2-26.5-8.2-1.7,0-26.2,5.9-54.3,13Z"/>
      <path d="M876.5,18.6c-7.1,1.8-26.7,6.7-43.5,10.9-40.8,10.1-38.4,9.5-37.2,10.7.8.8,15.1-2.4,48.6-10.8,26.2-6.5,47.6-12.2,47.6-12.5,0-1.7-3.5-1.4-15.5,1.7Z"/>
      <path d="M853,31.2c-49.4,12.5-50.2,12.8-48.3,13.5,1.4.5,94.4-22.5,95.6-23.7.5-.4.5-1,0-1.2-.4-.3-21.7,4.8-47.3,11.4Z"/>
      <path d="M874,31.6c-62,15.7-63.6,16.1-61.7,16.9,1.2.5,19.6-3.6,49.8-11.1,42.1-10.4,51.9-13.4,46.7-14.1-.7-.1-16.4,3.7-34.8,8.3Z"/>
      <path d="M.7,33.7c-.4.3-.7,36.6-.7,80.5v79.8h30l.2-55.7.3-55.7,20.6,32c11.4,17.5,23.2,35.8,26.3,40.6l5.6,8.8h18.6l26-40.5c14.2-22.2,26.1-40.5,26.4-40.5s.4,25,.3,55.5l-.3,55.6,15.2-.3,15.2-.3v-10.5c0-5.8-.1-41.9-.2-80.3l-.2-69.8-15.2.3-15.2.3-14.4,22c-7.9,12.1-21.1,32.6-29.4,45.5s-15.6,24.1-16.2,24.8c-.9.9-3.4-2.3-11.6-15-5.7-9-19.3-30.1-30.4-47.1l-20-30.7h-15.1c-8.4,0-15.5.3-15.8.7Z"/>
      <path d="M480,113.5v80.5h28.9l.3-36.8c.3-32.9.5-37,2.1-39.9,3-5.5,7.8-10.3,13.1-13.1,4.5-2.4,6.2-2.7,14.1-2.7,7.6.1,9.8.4,14,2.6,5.5,2.8,10.7,8.9,12.7,14.7.8,2.5,1.3,14.8,1.5,39.4l.4,35.8h27.9v-38.9c0-38.8,0-39-2.5-46.9-5.7-17.9-18.8-28.8-37.9-31.2-15-1.9-30.7,2.7-40.5,11.9-2.4,2.3-4.5,4.1-4.7,4.1s-.4-13.5-.4-30v-30h-29v80.5Z"/>
      <path d="M620,113.5v80.5h28l.2-5.3c.1-2.8.1-6.2,0-7.5,0-1.2.1-2.2.2-2.2.2,0,2.6,2,5.2,4.5,6.7,6.2,17.1,11.2,26.4,12.6,31,4.7,59-13.4,66.6-43.1,2.5-9.8,1.6-28.2-1.8-37.9-6.6-18.3-21-31.7-39.4-36.6-8.7-2.3-24.3-2.1-32.5.4-6.7,2.1-16.9,8.1-20.3,11.9-1.1,1.2-2.3,2.2-2.8,2.2-.4,0-.8-13.5-.8-30v-30h-29v80.5ZM694.6,102.5c10.3,3,18.3,10.6,22,20.7,2.5,6.8,2.3,20.1-.5,27-2.9,7.5-9.8,15-16.9,18.5-5.1,2.5-6.8,2.8-15.7,2.8s-10.6-.3-15.9-2.9c-11.7-5.7-18.3-15.6-19.3-28.9-.3-4.5-.1-9.5.6-12.4,2.8-11.1,11.6-20.7,22.5-24.5,6.3-2.1,16.6-2.3,23.2-.3Z"/>
      <path d="M976.7,33.6c-.4.4-.7,36.7-.7,80.6v79.9l14.8-.3,14.7-.3.5-16.9.5-16.8,7.5-7.4c7-7,7.5-7.3,9.1-5.7,2.1,2.3,32.1,41.2,34.4,44.7l1.7,2.6h17.9c9.9,0,17.9-.3,17.9-.6s-11.9-15.2-26.5-33.2c-14.6-17.9-26.5-32.8-26.4-33.1,0-.3,6.9-7,15.2-14.9,8.4-7.8,19.7-18.5,25.2-23.7l10-9.4-18.5-.1h-18.5l-24.5,24.5-24.5,24.5-.5-47.2-.5-47.3-14.1-.3c-7.7-.1-14.3.1-14.7.4Z"/>
      <path d="M262.2,77.1c-33.1,4.3-56.1,28.9-56.2,60,0,8,3,20.2,6.7,27.2,4.5,8.5,16.4,19.7,26.1,24.6,11.6,5.8,19.1,7.5,34.7,7.5s21.8-1.5,32.5-6.9c6.5-3.2,19-12.8,19-14.5,0-.5-4.4-4.2-9.9-8.4l-9.8-7.5-3.4,3.5c-1.9,1.9-6.1,4.8-9.4,6.4-22.6,11-50.8.8-56-20.3l-.7-2.7h95l.7-4.9c1.3-9.7-1.9-24.2-7.9-35.6-10.4-19.9-36.1-31.8-61.4-28.4ZM286.2,102.7c6.9,3.2,13.5,10.3,15.4,16.9.8,2.9,1.3,5.8.9,6.4s-12.4,1-33.6,1c-37.3,0-34.8.7-30.5-8.5,2.3-4.9,9-12,13.7-14.6,8.4-4.5,25.4-5.1,34.1-1.2Z"/>
      <path d="M404.2,77.1c-26.2,3.4-46.2,19.3-53.5,42.4-3.3,10.7-3,26.3.8,36.5,5,13.6,13.5,23.9,25.6,31.2,24,14.6,60.5,12.1,80.3-5.5l5-4.3-8.4-9.6-8.3-9.7-4.5,4c-2.4,2.1-7,5.1-10.1,6.6-5.1,2.6-6.6,2.8-17.1,2.8s-12.1-.3-16.5-2.5c-6.4-3.1-13.4-10.1-16.5-16.5-2.2-4.3-2.5-6.4-2.5-15.5s.4-11.3,2.2-15.2c10.4-22.7,41.8-27.8,61.4-10.1l3.6,3.3,8.1-9.2c4.5-5.1,8.2-9.6,8.2-9.9,0-1.4-12.6-10.2-18.5-13-10.3-5-27-7.4-39.3-5.8Z"/>
    </g>
  </g>
</svg>